# xmcd
#
# Track frame offsets:
#	150
#	22436
#	45850
#	69462
#	90300
#	114195
#	141799
#	167252
#	190060
#	218396
#
# Disc length: 3278 seconds
#
# Revision: 1
# Processed by: cddbd v1.5.2PL0 Copyright (c) Steve Scherf et al.
# Submitted via: EZCDAudioConverter 8.0.2.1
#
DISCID=740ccc0a
DTITLE=Nguyên Khang - Vì Đó Là Em [CD4)
DYEAR=2004
DGENRE=
TTITLE0=Bản tình cuối
TTITLE1=Tưởng niệm
TTITLE2=Bến quạnh hiu
TTITLE3=Biển nhớ
TTITLE4=Nhớ Sài Gòn
TTITLE5=Chiều mưa Hà Nội
TTITLE6=Bài không tên số 2
TTITLE7=Chiều một mình qua phố
TTITLE8=Tình
TTITLE9=Diễm xưa, Rồi mai tôi đưa em
EXTD=
EXTT0=
EXTT1=
EXTT2=
EXTT3=
EXTT4=
EXTT5=
EXTT6=
EXTT7=
EXTT8=
EXTT9=
PLAYORDER=
